# 3D Heart Model for Vale Afesu
o Heart
v 0.0000 0.0500 0.0800
v 0.0000 0.0500 -0.0800
v 0.0000 0.1000 0.0320
v 0.0055 0.1263 0.0320
v 0.0400 0.1852 0.0320
v 0.1131 0.2321 0.0320
v 0.2078 0.2300 0.0320
v 0.2884 0.1722 0.0320
v 0.3200 0.0800 0.0320
v 0.2884 -0.0190 0.0320
v 0.2078 -0.1100 0.0320
v 0.1131 -0.1921 0.0320
v 0.0400 -0.2652 0.0320
v 0.0055 -0.3195 0.0320
v 0.0000 -0.3400 0.0320
v -0.0055 -0.3195 0.0320
v -0.0400 -0.2652 0.0320
v -0.1131 -0.1921 0.0320
v -0.2078 -0.1100 0.0320
v -0.2884 -0.0190 0.0320
v -0.3200 0.0800 0.0320
v -0.2884 0.1722 0.0320
v -0.2078 0.2300 0.0320
v -0.1131 0.2321 0.0320
v -0.0400 0.1852 0.0320
v -0.0055 0.1263 0.0320
v 0.0000 0.1000 -0.0320
v 0.0055 0.1263 -0.0320
v 0.0400 0.1852 -0.0320
v 0.1131 0.2321 -0.0320
v 0.2078 0.2300 -0.0320
v 0.2884 0.1722 -0.0320
v 0.3200 0.0800 -0.0320
v 0.2884 -0.0190 -0.0320
v 0.2078 -0.1100 -0.0320
v 0.1131 -0.1921 -0.0320
v 0.0400 -0.2652 -0.0320
v 0.0055 -0.3195 -0.0320
v 0.0000 -0.3400 -0.0320
v -0.0055 -0.3195 -0.0320
v -0.0400 -0.2652 -0.0320
v -0.1131 -0.1921 -0.0320
v -0.2078 -0.1100 -0.0320
v -0.2884 -0.0190 -0.0320
v -0.3200 0.0800 -0.0320
v -0.2884 0.1722 -0.0320
v -0.2078 0.2300 -0.0320
v -0.1131 0.2321 -0.0320
v -0.0400 0.1852 -0.0320
v -0.0055 0.1263 -0.0320
f 1 3 4
f 1 4 5
f 1 5 6
f 1 6 7
f 1 7 8
f 1 8 9
f 1 9 10
f 1 10 11
f 1 11 12
f 1 12 13
f 1 13 14
f 1 14 15
f 1 15 16
f 1 16 17
f 1 17 18
f 1 18 19
f 1 19 20
f 1 20 21
f 1 21 22
f 1 22 23
f 1 23 24
f 1 24 25
f 1 25 26
f 1 26 3
f 2 28 27
f 2 29 28
f 2 30 29
f 2 31 30
f 2 32 31
f 2 33 32
f 2 34 33
f 2 35 34
f 2 36 35
f 2 37 36
f 2 38 37
f 2 39 38
f 2 40 39
f 2 41 40
f 2 42 41
f 2 43 42
f 2 44 43
f 2 45 44
f 2 46 45
f 2 47 46
f 2 48 47
f 2 49 48
f 2 50 49
f 2 27 50
f 3 27 4
f 4 27 28
f 4 28 5
f 5 28 29
f 5 29 6
f 6 29 30
f 6 30 7
f 7 30 31
f 7 31 8
f 8 31 32
f 8 32 9
f 9 32 33
f 9 33 10
f 10 33 34
f 10 34 11
f 11 34 35
f 11 35 12
f 12 35 36
f 12 36 13
f 13 36 37
f 13 37 14
f 14 37 38
f 14 38 15
f 15 38 39
f 15 39 16
f 16 39 40
f 16 40 17
f 17 40 41
f 17 41 18
f 18 41 42
f 18 42 19
f 19 42 43
f 19 43 20
f 20 43 44
f 20 44 21
f 21 44 45
f 21 45 22
f 22 45 46
f 22 46 23
f 23 46 47
f 23 47 24
f 24 47 48
f 24 48 25
f 25 48 49
f 25 49 26
f 26 49 50
f 26 50 3
f 3 50 27
